<svg xmlns="http://www.w3.org/2000/svg" viewBox="0 0 962 1635" width="962" height="1635">
  <title>Mumbai Interactive Map — LiaisonBank</title>
  <desc>Stylized vector map of Mumbai with water, green areas and road network. No labels or project markers.</desc>
  <defs>
    <style>
      .water { fill:#78cbe5; }
      .land { fill:#f6f6f1; }
      .green { fill:#c9e9cf; }
      .road { fill:none; stroke:#b8c5d7; stroke-width:1.5; stroke-linecap:round; stroke-linejoin:round; opacity:.9; }
      .major-road { fill:none; stroke:#687fa7; stroke-width:3.2; stroke-linecap:round; stroke-linejoin:round; opacity:.92; }
    </style>
  </defs>
  <rect width="100%" height="100%" class="water"/>
  <g id="land">

    <path class="land" d="M 961 1559 L 924 1584 L 923 1589 L 918 1588 L 895 1605 L 882 1600 L 855 1582 L 847 1573 L 809 1602 L 820 1616 L 820 1622 L 816 1621 L 804 1606 L 769 1634 L 835 1634 L 828 1625 L 821 1622 L 822 1619 L 830 1619 L 841 1634 L 961 1634 Z"/>
    <path class="land" d="M 961 1465 L 906 1535 L 853 1569 L 856 1575 L 882 1595 L 894 1599 L 961 1551 Z"/>
    <path class="land" d="M 215 1377 L 192 1371 L 181 1361 L 156 1397 L 161 1404 L 163 1415 L 160 1434 L 169 1429 L 173 1412 L 210 1378 Z"/>
    <path class="land" d="M 668 1314 L 644 1330 L 635 1331 L 624 1344 L 622 1358 L 633 1365 L 648 1385 L 664 1350 L 678 1336 L 677 1319 Z"/>
    <path class="land" d="M 961 1397 L 934 1382 L 907 1329 L 874 1302 L 885 1311 L 876 1320 L 855 1327 L 846 1327 L 831 1317 L 826 1332 L 814 1343 L 806 1345 L 786 1345 L 777 1333 L 759 1332 L 748 1323 L 743 1309 L 732 1305 L 722 1316 L 726 1330 L 721 1342 L 740 1348 L 751 1357 L 777 1364 L 800 1384 L 806 1401 L 811 1406 L 822 1411 L 834 1410 L 850 1403 L 866 1383 L 880 1380 L 887 1391 L 889 1414 L 885 1414 L 882 1394 L 877 1389 L 856 1412 L 831 1422 L 805 1420 L 774 1389 L 742 1374 L 741 1366 L 709 1353 L 693 1384 L 701 1390 L 687 1415 L 678 1410 L 681 1405 L 687 1407 L 682 1403 L 678 1407 L 681 1416 L 675 1419 L 652 1452 L 658 1463 L 672 1451 L 689 1455 L 699 1454 L 720 1483 L 747 1507 L 740 1531 L 734 1536 L 737 1544 L 729 1547 L 711 1547 L 698 1538 L 684 1544 L 686 1579 L 682 1594 L 679 1593 L 668 1570 L 646 1548 L 640 1550 L 632 1541 L 606 1546 L 598 1553 L 592 1567 L 589 1563 L 580 1565 L 580 1581 L 575 1592 L 576 1619 L 587 1628 L 589 1634 L 660 1634 L 642 1606 L 645 1602 L 657 1616 L 657 1621 L 665 1634 L 763 1634 L 838 1574 L 839 1568 L 844 1568 L 840 1567 L 841 1561 L 834 1549 L 804 1518 L 800 1510 L 803 1509 L 842 1549 L 846 1558 L 851 1560 L 894 1536 L 913 1520 L 948 1468 L 961 1459 Z"/>
    <path class="land" d="M 857 1281 L 909 1322 L 936 1375 L 961 1390 L 961 1247 L 945 1261 L 942 1278 L 937 1284 L 891 1306 Z"/>
    <path class="land" d="M 757 989 L 643 1030 L 614 1051 L 590 1043 L 571 1042 L 567 1054 L 568 1072 L 565 1077 L 545 1088 L 525 1088 L 509 1094 L 457 1123 L 433 1168 L 409 1172 L 383 1187 L 383 1205 L 379 1218 L 402 1207 L 403 1201 L 409 1202 L 416 1190 L 425 1194 L 439 1182 L 458 1185 L 479 1172 L 482 1173 L 480 1200 L 490 1206 L 487 1224 L 484 1227 L 487 1229 L 490 1225 L 535 1215 L 544 1215 L 550 1225 L 557 1214 L 592 1213 L 619 1190 L 707 1129 L 729 1106 L 745 1071 L 751 1048 L 751 991 Z"/>
    <path class="land" d="M 832 957 L 816 973 L 830 975 L 842 981 L 865 1007 L 878 1033 L 891 1095 L 889 1117 L 892 1138 L 888 1145 L 891 1201 L 893 1204 L 906 1203 L 914 1212 L 942 1214 L 950 1209 L 955 1194 L 958 1195 L 958 1200 L 961 1200 L 961 1180 L 938 1182 L 942 1178 L 961 1175 L 961 1108 L 925 1108 L 924 1104 L 961 1103 L 961 1025 L 948 1008 L 948 966 L 941 962 L 892 959 L 877 955 Z"/>
    <path class="land" d="M 961 488 L 953 509 L 955 538 L 946 564 L 949 573 L 960 577 Z"/>
    <path class="land" d="M 922 420 L 917 426 L 907 426 L 900 435 L 891 439 L 863 437 L 865 440 L 862 446 L 842 467 L 837 478 L 833 477 L 833 473 L 857 443 L 858 436 L 834 435 L 817 429 L 805 431 L 807 425 L 813 424 L 810 423 L 804 427 L 804 432 L 788 444 L 758 476 L 754 493 L 774 545 L 777 565 L 774 580 L 694 705 L 683 732 L 674 744 L 674 751 L 622 883 L 594 920 L 567 947 L 486 1007 L 458 1021 L 429 1031 L 417 1042 L 384 1110 L 351 1149 L 326 1195 L 320 1226 L 315 1237 L 314 1268 L 307 1286 L 308 1307 L 301 1328 L 296 1323 L 303 1303 L 302 1283 L 308 1263 L 307 1247 L 319 1205 L 317 1200 L 350 1139 L 376 1113 L 408 1045 L 401 1037 L 379 1032 L 366 1037 L 350 1015 L 330 1022 L 333 1026 L 327 1030 L 322 1028 L 323 1025 L 305 1027 L 316 1028 L 311 1038 L 316 1045 L 319 1064 L 316 1093 L 305 1116 L 281 1138 L 260 1142 L 252 1138 L 251 1123 L 239 1113 L 236 1127 L 237 1124 L 240 1125 L 242 1158 L 240 1167 L 234 1175 L 226 1205 L 230 1233 L 222 1250 L 234 1266 L 233 1276 L 225 1283 L 211 1288 L 196 1305 L 189 1352 L 186 1357 L 200 1364 L 201 1368 L 217 1370 L 237 1378 L 250 1393 L 264 1403 L 261 1407 L 252 1399 L 264 1421 L 267 1451 L 264 1463 L 250 1485 L 270 1496 L 272 1500 L 259 1516 L 248 1512 L 251 1519 L 245 1520 L 244 1526 L 235 1533 L 218 1526 L 207 1537 L 200 1554 L 199 1566 L 205 1585 L 219 1595 L 219 1600 L 211 1612 L 225 1604 L 246 1578 L 248 1565 L 245 1555 L 261 1543 L 274 1549 L 281 1534 L 294 1523 L 302 1499 L 307 1494 L 321 1501 L 325 1498 L 322 1491 L 330 1482 L 328 1476 L 324 1477 L 318 1470 L 330 1458 L 333 1458 L 337 1465 L 336 1447 L 347 1414 L 345 1404 L 337 1398 L 342 1383 L 346 1382 L 350 1388 L 348 1401 L 357 1375 L 347 1370 L 349 1360 L 353 1353 L 363 1355 L 366 1348 L 356 1344 L 355 1340 L 368 1340 L 356 1332 L 371 1332 L 372 1324 L 381 1323 L 385 1319 L 369 1312 L 369 1308 L 376 1309 L 364 1300 L 380 1301 L 370 1296 L 371 1293 L 386 1295 L 376 1287 L 392 1290 L 388 1285 L 405 1275 L 401 1273 L 384 1237 L 402 1222 L 400 1214 L 375 1228 L 350 1283 L 350 1327 L 347 1328 L 342 1323 L 345 1320 L 345 1310 L 341 1304 L 344 1282 L 374 1215 L 378 1184 L 411 1165 L 429 1163 L 455 1117 L 507 1087 L 520 1082 L 546 1080 L 561 1072 L 562 1045 L 570 1019 L 570 1008 L 583 984 L 586 988 L 578 1005 L 573 1037 L 591 1037 L 613 1044 L 639 1025 L 655 1020 L 659 1016 L 751 984 L 742 963 L 732 962 L 721 967 L 702 987 L 689 992 L 678 991 L 665 979 L 650 942 L 656 944 L 668 975 L 675 983 L 683 986 L 698 983 L 720 962 L 739 954 L 733 935 L 735 887 L 725 873 L 736 875 L 738 847 L 735 842 L 738 841 L 747 820 L 750 793 L 772 747 L 770 736 L 757 718 L 767 719 L 778 733 L 801 679 L 809 652 L 816 652 L 810 650 L 812 600 L 828 546 L 823 526 L 828 519 L 825 493 L 831 479 L 836 480 L 831 493 L 835 516 L 835 546 L 823 598 L 822 650 L 828 651 L 829 655 L 822 656 L 816 697 L 816 707 L 825 715 L 816 718 L 813 723 L 811 745 L 817 750 L 817 754 L 808 767 L 807 814 L 808 832 L 820 836 L 826 845 L 832 895 L 839 903 L 850 899 L 851 903 L 830 922 L 824 956 L 812 967 L 836 947 L 890 950 L 890 947 L 894 946 L 894 951 L 947 957 L 942 876 L 918 815 L 916 804 L 919 803 L 936 850 L 947 871 L 947 911 L 955 972 L 954 1008 L 961 1018 L 961 792 L 938 788 L 938 785 L 943 783 L 961 787 L 961 609 L 953 604 L 955 580 L 945 578 L 940 569 L 949 538 L 946 510 L 959 472 L 944 452 L 936 431 L 933 433 L 934 428 Z"/>
    <path class="land" d="M 961 373 L 925 408 L 925 411 L 925 408 L 939 397 L 949 404 L 961 419 Z"/>
    <path class="land" d="M 715 159 L 692 159 L 670 149 L 651 157 L 652 164 L 645 175 L 629 172 L 614 182 L 604 179 L 596 190 L 583 197 L 577 192 L 569 172 L 548 152 L 525 151 L 516 147 L 512 150 L 512 162 L 505 183 L 453 226 L 438 262 L 418 293 L 410 366 L 428 417 L 429 433 L 425 443 L 404 467 L 395 504 L 398 582 L 388 634 L 384 674 L 378 690 L 382 732 L 387 749 L 377 807 L 379 838 L 368 863 L 361 869 L 351 870 L 343 875 L 343 881 L 351 892 L 353 905 L 354 1010 L 368 1030 L 384 1025 L 414 1037 L 429 1023 L 471 1008 L 485 1000 L 560 944 L 587 919 L 618 877 L 666 746 L 687 703 L 760 594 L 759 591 L 763 589 L 767 579 L 770 556 L 754 515 L 750 482 L 753 472 L 774 454 L 777 447 L 795 431 L 802 418 L 807 416 L 802 412 L 801 379 L 798 378 L 798 354 L 793 337 L 794 296 L 791 284 L 774 250 L 762 212 L 729 178 Z"/>
    <path class="land" d="M 552 148 L 570 164 L 584 191 L 603 172 L 614 175 L 629 165 L 642 167 L 644 155 L 649 150 L 611 138 L 587 143 L 554 141 L 553 135 Z"/>
    <path class="land" d="M 368 31 L 345 31 L 327 37 L 324 34 L 322 39 L 289 54 L 247 86 L 231 92 L 202 91 L 162 71 L 159 64 L 146 63 L 129 79 L 130 140 L 124 153 L 125 171 L 113 177 L 117 211 L 126 214 L 128 235 L 118 248 L 125 276 L 125 289 L 117 306 L 118 326 L 110 335 L 115 360 L 102 389 L 117 407 L 121 434 L 116 441 L 120 446 L 123 445 L 133 451 L 137 460 L 135 467 L 127 467 L 121 485 L 123 491 L 130 494 L 145 489 L 153 493 L 163 478 L 171 480 L 173 488 L 164 573 L 151 579 L 144 576 L 134 592 L 120 587 L 116 599 L 127 612 L 121 623 L 130 629 L 131 637 L 145 656 L 146 671 L 140 680 L 145 694 L 141 721 L 153 724 L 157 728 L 175 714 L 170 688 L 177 690 L 189 685 L 195 659 L 181 635 L 186 635 L 199 651 L 207 637 L 225 623 L 247 591 L 287 551 L 283 531 L 294 548 L 291 577 L 281 588 L 293 604 L 294 616 L 290 616 L 289 609 L 281 597 L 270 596 L 249 617 L 257 622 L 259 634 L 255 636 L 252 626 L 245 622 L 230 640 L 209 657 L 193 688 L 221 712 L 252 762 L 265 793 L 279 854 L 279 879 L 272 909 L 264 920 L 263 949 L 259 958 L 263 970 L 261 990 L 266 997 L 267 1005 L 248 1046 L 251 1052 L 248 1059 L 252 1053 L 282 1042 L 302 1021 L 316 1021 L 347 1007 L 347 900 L 337 882 L 337 874 L 344 866 L 362 859 L 368 852 L 373 838 L 371 807 L 380 747 L 377 743 L 377 727 L 373 721 L 371 689 L 381 653 L 386 601 L 392 582 L 391 522 L 388 511 L 391 510 L 390 498 L 398 466 L 420 439 L 422 418 L 406 376 L 404 363 L 412 293 L 430 264 L 448 223 L 502 175 L 507 147 L 518 141 L 538 146 L 546 142 L 545 139 L 525 134 L 509 125 L 483 101 L 409 45 Z"/>
    <path class="land" d="M 514 0 L 524 21 L 537 34 L 541 63 L 560 93 L 555 126 L 587 135 L 607 129 L 623 129 L 642 139 L 659 141 L 669 134 L 680 110 L 693 98 L 726 87 L 748 86 L 813 118 L 839 151 L 853 162 L 859 174 L 869 174 L 868 177 L 861 179 L 860 197 L 863 211 L 890 257 L 890 279 L 900 352 L 896 355 L 901 351 L 907 352 L 902 358 L 908 370 L 920 384 L 931 391 L 918 406 L 900 394 L 892 395 L 897 386 L 889 364 L 885 368 L 881 367 L 881 363 L 889 359 L 884 354 L 882 317 L 872 275 L 862 252 L 847 231 L 840 200 L 817 163 L 776 130 L 749 118 L 707 121 L 687 140 L 673 144 L 687 151 L 712 152 L 721 156 L 730 171 L 765 205 L 801 296 L 800 339 L 803 345 L 806 388 L 811 413 L 846 389 L 850 390 L 816 417 L 821 424 L 830 429 L 845 427 L 868 432 L 893 431 L 902 420 L 905 420 L 902 415 L 907 408 L 918 407 L 961 364 L 961 272 L 949 281 L 946 288 L 948 296 L 942 331 L 936 337 L 932 334 L 936 329 L 936 321 L 939 320 L 942 281 L 958 266 L 961 268 L 961 131 L 958 129 L 961 126 L 961 0 Z"/>
    <path class="land" d="M 458 0 L 468 10 L 496 68 L 528 105 L 549 123 L 549 126 L 554 94 L 533 62 L 532 37 L 517 21 L 508 0 Z"/>
  </g>
  <g id="green-areas">
    <path class="green" d="M 834 1633 L 826 1624 L 816 1621 L 803 1608 L 772 1634 Z"/>
    <path class="green" d="M 811 1602 L 812 1607 L 820 1616 L 831 1618 L 835 1615 L 861 1628 L 857 1634 L 903 1634 L 905 1616 L 892 1609 L 870 1608 L 850 1591 L 853 1588 L 859 1587 L 859 1585 L 848 1576 L 843 1577 L 816 1600 Z"/>
    <path class="green" d="M 581 1563 L 579 1573 L 584 1575 L 576 1587 L 575 1614 L 576 1619 L 592 1634 L 596 1576 L 593 1568 L 587 1570 L 587 1564 Z"/>
    <path class="green" d="M 875 1557 L 858 1566 L 855 1572 L 864 1578 L 874 1564 Z"/>
    <path class="green" d="M 221 1526 L 215 1527 L 209 1534 L 199 1558 L 200 1574 L 205 1585 L 213 1593 L 217 1592 L 220 1598 L 212 1610 L 225 1604 L 231 1597 L 229 1592 L 206 1574 L 226 1531 Z"/>
    <path class="green" d="M 947 1401 L 944 1413 L 949 1411 L 957 1412 L 956 1402 L 954 1400 Z"/>
    <path class="green" d="M 672 1316 L 663 1316 L 644 1330 L 635 1331 L 624 1344 L 622 1358 L 633 1365 L 647 1384 L 652 1380 L 664 1351 L 678 1336 L 677 1319 Z"/>
    <path class="green" d="M 889 1315 L 884 1314 L 875 1320 L 855 1327 L 846 1327 L 831 1317 L 828 1319 L 825 1333 L 814 1343 L 805 1345 L 786 1345 L 778 1333 L 759 1332 L 748 1323 L 743 1309 L 738 1306 L 731 1306 L 723 1315 L 726 1329 L 721 1342 L 740 1348 L 751 1357 L 762 1359 L 771 1364 L 777 1364 L 800 1384 L 806 1401 L 817 1410 L 822 1411 L 834 1410 L 850 1403 L 866 1383 L 878 1380 L 879 1354 L 894 1338 L 886 1349 L 881 1364 L 881 1381 L 887 1391 L 891 1420 L 885 1414 L 883 1398 L 879 1390 L 872 1392 L 859 1409 L 852 1414 L 830 1422 L 805 1420 L 774 1389 L 742 1374 L 742 1367 L 709 1353 L 694 1382 L 694 1386 L 701 1390 L 700 1394 L 685 1416 L 685 1419 L 677 1417 L 659 1439 L 652 1452 L 657 1462 L 672 1451 L 689 1455 L 698 1453 L 714 1472 L 720 1483 L 748 1509 L 743 1517 L 739 1532 L 734 1536 L 738 1543 L 737 1545 L 711 1547 L 698 1538 L 683 1545 L 686 1579 L 681 1598 L 671 1574 L 647 1551 L 651 1583 L 669 1634 L 760 1634 L 798 1603 L 791 1586 L 814 1540 L 819 1547 L 826 1578 L 830 1578 L 838 1571 L 839 1559 L 837 1555 L 805 1520 L 797 1520 L 789 1528 L 761 1501 L 764 1498 L 778 1496 L 780 1493 L 766 1478 L 761 1468 L 760 1441 L 764 1406 L 763 1398 L 759 1392 L 738 1386 L 737 1383 L 740 1378 L 762 1385 L 770 1395 L 771 1409 L 767 1460 L 772 1474 L 788 1491 L 796 1489 L 818 1512 L 816 1521 L 827 1532 L 847 1525 L 898 1480 L 901 1480 L 909 1464 L 922 1452 L 922 1449 L 918 1446 L 914 1447 L 917 1440 L 920 1441 L 915 1431 L 914 1417 L 905 1395 L 906 1355 L 911 1339 L 907 1331 Z"/>
    <path class="green" d="M 939 1285 L 936 1284 L 916 1295 L 897 1301 L 892 1307 L 914 1324 L 925 1313 L 932 1301 L 932 1295 L 937 1291 Z"/>
    <path class="green" d="M 389 1254 L 388 1260 L 394 1277 L 402 1277 L 392 1254 Z"/>
    <path class="green" d="M 961 1247 L 946 1259 L 940 1283 L 961 1267 Z"/>
    <path class="green" d="M 436 1145 L 420 1156 L 415 1163 L 428 1162 Z"/>
    <path class="green" d="M 961 1140 L 957 1141 L 943 1178 L 961 1174 Z"/>
    <path class="green" d="M 534 1216 L 532 1212 L 513 1201 L 525 1182 L 526 1177 L 517 1168 L 515 1168 L 511 1175 L 503 1175 L 484 1156 L 500 1133 L 500 1130 L 484 1123 L 487 1110 L 459 1123 L 436 1166 L 426 1171 L 420 1178 L 412 1180 L 401 1188 L 401 1201 L 404 1199 L 409 1202 L 416 1189 L 426 1193 L 439 1182 L 459 1185 L 481 1172 L 480 1200 L 491 1207 L 486 1226 Z"/>
    <path class="green" d="M 483 1076 L 466 1083 L 461 1083 L 458 1088 L 452 1091 L 450 1118 L 492 1096 Z"/>
    <path class="green" d="M 751 993 L 746 993 L 681 1016 L 682 1021 L 688 1027 L 693 1026 L 715 1070 L 715 1075 L 706 1092 L 681 1062 L 652 1070 L 636 1098 L 622 1102 L 620 1098 L 623 1089 L 608 1089 L 587 1062 L 583 1063 L 572 1083 L 557 1082 L 557 1093 L 565 1119 L 566 1131 L 556 1143 L 555 1148 L 568 1164 L 558 1214 L 592 1213 L 619 1190 L 668 1158 L 676 1149 L 707 1129 L 729 1106 L 748 1061 L 753 1026 Z"/>
    <path class="green" d="M 742 963 L 732 962 L 721 967 L 700 988 L 683 992 L 671 987 L 678 1006 L 682 1007 L 750 983 Z"/>
    <path class="green" d="M 834 957 L 818 973 L 830 975 L 842 981 L 858 997 L 877 1029 L 885 1075 L 891 1095 L 889 1117 L 892 1138 L 888 1145 L 888 1185 L 892 1204 L 906 1203 L 914 1212 L 932 1215 L 942 1214 L 951 1208 L 954 1195 L 961 1189 L 961 1180 L 945 1183 L 934 1181 L 916 1164 L 911 1155 L 910 1144 L 904 1136 L 905 1106 L 909 1103 L 906 1072 L 910 1066 L 909 1030 L 904 1031 L 901 1029 L 889 1009 L 884 984 L 876 974 L 869 974 L 859 966 L 852 965 L 839 957 Z"/>
    <path class="green" d="M 866 903 L 851 916 L 849 914 L 850 907 L 848 907 L 830 922 L 824 953 L 831 949 L 830 931 L 859 920 L 866 910 Z"/>
    <path class="green" d="M 860 892 L 866 899 L 869 899 L 877 888 L 863 886 Z"/>
    <path class="green" d="M 629 843 L 626 844 L 607 872 L 607 887 L 604 892 L 607 892 L 613 884 Z"/>
    <path class="green" d="M 236 733 L 236 737 L 260 778 L 263 789 L 266 789 L 266 768 L 262 746 L 254 739 L 244 734 Z"/>
    <path class="green" d="M 673 731 L 661 735 L 647 745 L 647 747 L 654 754 L 663 755 L 664 749 L 657 747 L 666 746 Z"/>
    <path class="green" d="M 170 687 L 164 693 L 161 722 L 166 721 L 175 714 Z"/>
    <path class="green" d="M 822 656 L 816 707 L 826 715 L 814 720 L 811 735 L 811 745 L 818 752 L 808 767 L 808 832 L 820 836 L 825 842 L 831 892 L 833 897 L 840 902 L 850 898 L 855 883 L 870 869 L 888 864 L 889 869 L 886 873 L 888 875 L 894 867 L 897 857 L 865 845 L 864 808 L 886 799 L 889 790 L 874 780 L 868 781 L 857 772 L 859 763 L 852 758 L 848 750 L 847 739 L 851 723 L 847 704 L 867 686 L 867 683 L 848 673 L 840 679 L 836 670 L 837 658 Z"/>
    <path class="green" d="M 143 649 L 146 671 L 140 682 L 143 688 L 145 688 L 149 670 L 146 650 Z"/>
    <path class="green" d="M 806 652 L 759 642 L 737 640 L 706 689 L 706 695 L 702 696 L 695 706 L 677 742 L 674 753 L 685 781 L 665 791 L 651 823 L 643 830 L 623 884 L 609 903 L 612 912 L 621 926 L 633 932 L 640 932 L 646 935 L 656 944 L 668 975 L 679 985 L 691 986 L 700 982 L 720 962 L 738 955 L 733 935 L 735 887 L 724 872 L 725 870 L 731 875 L 736 875 L 738 846 L 725 835 L 721 815 L 728 820 L 736 834 L 739 835 L 748 817 L 749 796 L 770 755 L 772 740 L 759 721 L 730 733 L 725 728 L 735 728 L 753 719 L 762 717 L 767 719 L 779 731 L 788 705 L 800 682 L 808 657 Z"/>
    <path class="green" d="M 750 602 L 731 603 L 711 627 L 705 631 L 699 666 L 691 681 L 684 686 L 678 686 L 676 680 L 660 683 L 660 695 L 668 702 L 679 699 L 684 703 L 688 702 L 747 610 Z"/>
    <path class="green" d="M 277 595 L 271 595 L 250 616 L 251 619 L 257 622 L 259 627 L 257 641 L 255 640 L 252 626 L 249 623 L 244 623 L 233 637 L 209 657 L 204 665 L 205 671 L 240 693 L 245 693 L 260 669 L 285 639 L 290 639 L 292 642 L 295 640 L 295 633 L 291 630 L 289 624 L 289 609 L 285 601 Z"/>
    <path class="green" d="M 134 592 L 120 587 L 116 602 L 121 605 Z"/>
    <path class="green" d="M 296 555 L 292 559 L 291 577 L 282 588 L 291 601 L 293 601 L 294 591 L 302 568 L 302 562 L 296 558 Z"/>
    <path class="green" d="M 825 499 L 823 499 L 820 506 L 813 536 L 800 541 L 796 545 L 796 561 L 794 566 L 772 594 L 766 595 L 743 631 L 743 636 L 784 642 L 806 648 L 810 647 L 813 616 L 812 600 L 828 546 L 823 528 L 828 519 Z"/>
    <path class="green" d="M 831 497 L 831 504 L 836 518 L 833 523 L 835 544 L 823 598 L 822 650 L 837 652 L 838 642 L 848 632 L 852 623 L 855 600 L 854 587 L 841 575 L 842 527 L 833 497 Z"/>
    <path class="green" d="M 939 441 L 936 441 L 921 479 L 917 523 L 915 524 L 896 511 L 893 511 L 888 530 L 897 538 L 902 546 L 915 577 L 910 605 L 915 635 L 945 685 L 942 720 L 934 732 L 932 743 L 920 757 L 922 774 L 914 777 L 915 786 L 924 785 L 938 774 L 943 774 L 946 771 L 961 766 L 961 642 L 953 642 L 948 624 L 953 610 L 952 594 L 955 582 L 944 580 L 939 570 L 939 563 L 948 537 L 946 511 L 958 473 L 942 451 Z"/>
    <path class="green" d="M 931 427 L 926 422 L 921 421 L 915 427 L 908 426 L 902 435 L 907 435 L 920 429 L 930 431 Z"/>
    <path class="green" d="M 960 375 L 939 397 L 949 404 L 961 418 Z"/>
    <path class="green" d="M 889 367 L 877 373 L 876 380 L 863 401 L 861 412 L 856 411 L 851 414 L 851 417 L 856 421 L 847 425 L 846 428 L 860 428 L 859 419 L 863 417 L 864 411 L 868 407 L 869 409 L 866 414 L 867 430 L 893 430 L 898 426 L 901 414 L 907 408 L 914 406 L 912 402 L 900 394 L 887 400 L 882 400 L 897 389 Z"/>
    <path class="green" d="M 961 324 L 941 333 L 913 357 L 905 360 L 905 364 L 913 377 L 927 389 L 933 390 L 957 368 L 961 360 Z"/>
    <path class="green" d="M 704 160 L 684 158 L 672 151 L 668 151 L 661 156 L 653 156 L 651 169 L 647 174 L 641 176 L 629 174 L 618 194 L 610 182 L 604 181 L 590 197 L 582 198 L 576 192 L 568 172 L 549 154 L 538 154 L 515 149 L 513 151 L 509 177 L 513 191 L 527 203 L 532 218 L 527 229 L 527 242 L 522 246 L 515 247 L 509 236 L 496 232 L 497 224 L 486 222 L 479 216 L 476 216 L 470 224 L 470 236 L 463 235 L 453 246 L 455 257 L 471 274 L 449 286 L 452 306 L 449 327 L 438 343 L 438 349 L 435 353 L 419 353 L 415 348 L 411 349 L 411 355 L 419 356 L 448 399 L 458 401 L 462 408 L 468 407 L 473 415 L 466 426 L 466 430 L 473 445 L 475 458 L 485 472 L 481 484 L 463 493 L 460 507 L 441 519 L 437 537 L 460 536 L 466 539 L 479 576 L 479 582 L 469 594 L 469 598 L 473 603 L 495 605 L 502 614 L 495 630 L 502 640 L 502 644 L 511 651 L 519 671 L 517 673 L 513 672 L 487 653 L 484 653 L 482 656 L 476 656 L 465 648 L 458 634 L 466 612 L 432 593 L 427 587 L 412 583 L 406 583 L 398 587 L 396 591 L 389 639 L 396 661 L 427 670 L 435 686 L 441 685 L 444 689 L 462 693 L 470 704 L 469 717 L 486 726 L 494 724 L 500 719 L 507 722 L 518 694 L 526 698 L 535 709 L 593 698 L 614 681 L 616 665 L 628 638 L 628 626 L 633 619 L 629 589 L 632 584 L 641 580 L 655 560 L 659 548 L 666 542 L 662 532 L 679 512 L 676 462 L 685 452 L 703 447 L 690 416 L 709 415 L 726 394 L 739 387 L 743 379 L 749 376 L 759 362 L 759 355 L 756 351 L 760 340 L 762 318 L 769 305 L 772 304 L 775 308 L 783 310 L 785 313 L 793 311 L 792 293 L 785 278 L 782 277 L 777 281 L 770 280 L 775 261 L 773 255 L 761 252 L 750 261 L 744 261 L 737 265 L 735 263 L 745 231 L 739 219 L 720 203 L 690 204 L 697 183 L 701 182 L 706 174 Z"/>
    <path class="green" d="M 646 150 L 637 148 L 623 140 L 612 138 L 587 143 L 553 141 L 553 147 L 575 168 L 584 189 L 587 189 L 602 172 L 615 174 L 628 165 L 642 167 Z"/>
    <path class="green" d="M 678 143 L 679 146 L 685 149 L 694 150 L 706 133 L 709 151 L 732 146 L 733 154 L 749 166 L 756 159 L 760 160 L 798 186 L 792 200 L 793 205 L 803 208 L 807 204 L 811 204 L 815 207 L 816 212 L 822 210 L 836 234 L 852 250 L 860 262 L 848 279 L 840 284 L 840 288 L 863 306 L 865 347 L 872 364 L 877 365 L 884 361 L 882 317 L 870 269 L 862 252 L 847 231 L 839 198 L 834 198 L 834 189 L 817 163 L 788 138 L 760 121 L 750 118 L 727 118 L 706 121 L 687 140 Z"/>
    <path class="green" d="M 414 50 L 416 57 L 441 97 L 464 113 L 476 111 L 481 119 L 485 118 L 488 111 L 503 129 L 497 144 L 503 151 L 512 141 L 517 140 L 537 145 L 545 142 L 545 139 L 528 135 L 509 125 L 473 93 L 429 59 Z"/>
    <path class="green" d="M 409 45 L 397 41 L 386 74 L 388 74 L 400 47 L 409 47 Z"/>
    <path class="green" d="M 365 31 L 344 31 L 324 37 L 289 54 L 242 89 L 231 92 L 203 91 L 161 71 L 142 102 L 146 111 L 159 122 L 150 138 L 151 142 L 173 143 L 187 147 L 194 146 L 199 149 L 185 172 L 186 175 L 195 179 L 198 184 L 179 211 L 167 206 L 143 189 L 139 189 L 135 210 L 116 203 L 117 211 L 126 214 L 128 234 L 118 248 L 118 256 L 124 272 L 125 288 L 117 306 L 117 322 L 124 331 L 125 346 L 128 349 L 130 361 L 126 365 L 123 374 L 118 369 L 112 368 L 102 389 L 105 395 L 117 407 L 121 434 L 116 438 L 119 445 L 123 445 L 127 433 L 136 425 L 141 440 L 147 446 L 146 455 L 137 459 L 137 465 L 135 467 L 127 467 L 121 485 L 124 492 L 132 493 L 142 489 L 154 492 L 162 480 L 156 462 L 158 451 L 198 402 L 198 396 L 174 380 L 178 379 L 204 388 L 210 377 L 249 341 L 264 298 L 281 283 L 301 280 L 310 272 L 313 259 L 305 248 L 308 233 L 313 226 L 315 231 L 310 249 L 316 254 L 320 262 L 320 271 L 316 280 L 303 291 L 287 298 L 280 306 L 265 346 L 255 361 L 238 375 L 225 391 L 223 415 L 204 432 L 198 442 L 196 455 L 189 467 L 184 471 L 184 476 L 189 485 L 184 517 L 173 522 L 175 539 L 172 558 L 165 567 L 165 571 L 159 576 L 159 581 L 162 583 L 169 598 L 147 609 L 144 615 L 158 647 L 165 648 L 173 645 L 184 660 L 190 664 L 194 662 L 193 654 L 174 624 L 187 636 L 192 645 L 199 650 L 207 637 L 225 623 L 247 591 L 287 551 L 281 530 L 282 526 L 290 542 L 293 543 L 294 540 L 288 530 L 284 515 L 277 514 L 263 544 L 249 559 L 210 567 L 229 551 L 232 524 L 230 521 L 230 510 L 228 510 L 223 515 L 227 523 L 221 527 L 212 526 L 215 517 L 211 517 L 207 511 L 200 509 L 200 483 L 214 457 L 228 458 L 236 457 L 247 422 L 244 419 L 244 412 L 231 411 L 230 409 L 247 389 L 253 391 L 262 390 L 263 377 L 256 371 L 290 336 L 302 345 L 316 321 L 329 312 L 335 302 L 332 269 L 347 251 L 351 249 L 351 246 L 362 231 L 370 229 L 378 232 L 377 225 L 379 224 L 381 226 L 381 239 L 391 241 L 406 232 L 418 228 L 418 211 L 405 199 L 391 198 L 384 195 L 380 180 L 358 149 L 346 147 L 337 165 L 332 161 L 325 148 L 310 154 L 308 149 L 313 134 L 293 123 L 295 115 L 301 106 L 307 106 L 314 112 L 323 110 L 345 55 L 364 35 Z"/>
    <path class="green" d="M 961 0 L 948 0 L 948 10 L 945 16 L 941 18 L 940 23 L 921 37 L 921 39 L 928 37 L 928 40 L 923 42 L 916 40 L 913 35 L 914 29 L 912 29 L 911 35 L 896 40 L 886 37 L 874 45 L 868 65 L 858 82 L 864 82 L 876 74 L 881 109 L 886 109 L 891 73 L 898 64 L 899 66 L 893 75 L 889 110 L 895 109 L 909 92 L 916 88 L 923 89 L 923 83 L 929 73 L 946 75 L 948 77 L 946 91 L 961 99 L 961 62 L 951 58 L 917 52 L 930 51 L 961 59 L 961 39 L 948 33 L 947 21 L 945 20 L 961 14 Z"/>
    <path class="green" d="M 515 0 L 524 19 L 536 29 L 542 63 L 561 92 L 564 112 L 559 126 L 586 135 L 597 134 L 607 129 L 623 129 L 642 139 L 659 141 L 669 134 L 680 110 L 693 98 L 700 94 L 726 87 L 747 86 L 758 89 L 792 109 L 813 118 L 830 137 L 838 150 L 853 162 L 859 174 L 888 172 L 908 182 L 913 182 L 916 178 L 914 170 L 892 149 L 894 148 L 908 159 L 920 175 L 920 179 L 913 188 L 888 178 L 876 176 L 861 179 L 860 186 L 862 209 L 883 242 L 890 257 L 891 287 L 896 312 L 899 345 L 902 347 L 918 287 L 918 278 L 911 261 L 909 247 L 899 224 L 899 212 L 905 193 L 907 191 L 942 210 L 961 211 L 961 198 L 957 195 L 961 193 L 961 187 L 944 178 L 936 163 L 919 145 L 892 127 L 896 115 L 888 115 L 886 125 L 873 137 L 862 141 L 863 138 L 873 134 L 881 127 L 885 116 L 879 115 L 863 135 L 857 136 L 856 127 L 860 108 L 845 105 L 843 113 L 847 131 L 846 137 L 843 130 L 841 108 L 829 110 L 819 95 L 830 74 L 836 72 L 843 78 L 839 79 L 834 76 L 838 85 L 843 84 L 843 78 L 854 80 L 865 65 L 870 46 L 885 35 L 885 32 L 878 25 L 883 0 Z"/>
    <path class="green" d="M 459 0 L 468 10 L 496 68 L 539 116 L 547 120 L 542 110 L 552 92 L 534 65 L 530 36 L 517 23 L 506 0 Z"/>
  </g>
  <g id="roads">
    <path class="major-road" d="M 371 815 L 380 748"/>
    <path class="major-road" d="M 899 754 L 919 814"/>
    <path class="major-road" d="M 880 918 L 905 870"/>
    <path class="major-road" d="M 344 1339 L 344 1285"/>
    <path class="major-road" d="M 949 893 L 952 944"/>
    <path class="major-road" d="M 833 398 L 874 371"/>
    <path class="major-road" d="M 894 688 L 896 734"/>
  </g>

  <!-- Add LiaisonBank project markers as separate SVG/HTML elements.
       Recommended coordinates can be placed in this same viewBox. -->
  <g id="project-markers"></g>
</svg>
